<?xml version="1.0" standalone="no"?>
<!DOCTYPE svg PUBLIC "-//W3C//DTD SVG 20010904//EN"
 "https://www.w3.org/TR/2001/REC-SVG-20010904/DTD/svg10.dtd">
<svg version="1.0" xmlns="https://www.w3.org/2000/svg"
 width="2006.000000pt" height="2006.000000pt" viewBox="0 0 2006.000000 2006.000000"
 preserveAspectRatio="xMidYMid meet">
<metadata>
Created by potrace 1.14, written by Peter Selinger 2001-2017
</metadata>
<g transform="translate(0.000000,2006.000000) scale(0.100000,-0.100000)"
fill="#000000" stroke="none">
<path d="M3553 20052 c-13 -2 -29 -12 -36 -23 -8 -10 -17 -16 -22 -11 -5 4 -5
2 -2 -4 9 -15 -32 -66 -45 -58 -6 4 -8 2 -5 -3 8 -13 -48 -85 -58 -75 -5 4 -5
2 -2 -5 4 -6 -9 -28 -29 -50 -20 -21 -36 -40 -36 -43 0 -3 -5 -3 -11 -2 -7 2
-9 0 -5 -3 11 -11 -11 -47 -24 -39 -7 4 -8 3 -4 -4 4 -7 -4 -23 -18 -37 -14
-14 -23 -25 -20 -25 2 0 -3 -11 -12 -25 -9 -14 -21 -22 -27 -18 -5 3 -7 2 -4
-4 8 -13 -27 -65 -38 -56 -4 5 -5 3 -1 -4 4 -7 -2 -21 -14 -33 -11 -11 -19
-22 -17 -25 1 -2 -5 -12 -13 -22 -9 -10 -17 -22 -19 -28 -13 -36 -25 -54 -34
-48 -6 3 -7 2 -4 -3 8 -14 -47 -106 -58 -97 -4 5 -5 3 -2 -4 4 -6 0 -19 -9
-27 -8 -9 -13 -16 -9 -16 3 0 -6 -22 -21 -50 -15 -27 -31 -50 -36 -50 -4 0 -7
-4 -5 -8 3 -10 -45 -115 -56 -123 -5 -3 -8 -10 -8 -15 1 -15 -33 -94 -41 -94
-4 0 -4 -7 -1 -17 5 -12 3 -14 -7 -8 -8 5 -11 4 -7 -2 9 -14 -12 -73 -25 -73
-5 0 -7 -4 -4 -9 6 -10 -44 -145 -56 -149 -4 -2 -6 -8 -3 -12 3 -5 -2 -26 -11
-47 -9 -21 -18 -49 -20 -63 -2 -14 -8 -26 -14 -28 -5 -2 -8 -7 -5 -12 3 -5 0
-21 -6 -37 -7 -15 -14 -37 -16 -48 -2 -11 -6 -27 -9 -35 -4 -8 -8 -26 -10 -40
-2 -14 -6 -36 -10 -50 -9 -33 -27 -200 -26 -235 2 -37 14 -109 26 -160 8 -33
12 -63 9 -68 -3 -5 0 -13 6 -17 7 -4 13 -23 14 -43 1 -20 5 -37 8 -37 9 0 40
-120 34 -130 -3 -4 0 -10 5 -12 6 -2 12 -14 14 -28 2 -14 7 -33 11 -42 4 -9 3
-22 -1 -29 -4 -7 -3 -9 3 -6 9 6 21 -26 39 -105 1 -5 3 -11 4 -15 2 -5 4 -12
5 -18 2 -5 6 -21 11 -35 4 -14 6 -27 5 -29 -2 -2 3 -7 9 -11 7 -4 13 -19 13
-34 1 -14 5 -26 8 -26 9 0 34 -92 31 -109 -2 -7 1 -10 7 -6 10 6 12 1 15 -37
1 -7 4 -15 7 -18 14 -10 39 -83 32 -93 -3 -6 -1 -7 5 -3 11 7 16 -8 15 -42 -1
-7 2 -11 5 -8 9 9 33 -54 25 -67 -3 -5 -1 -7 4 -4 10 6 50 -79 45 -95 -1 -5 2
-8 6 -8 12 0 34 -49 27 -60 -3 -5 -1 -10 4 -12 5 -1 11 -10 13 -18 2 -8 9 -21
16 -28 7 -8 10 -18 7 -23 -4 -5 -2 -9 3 -9 11 0 38 -60 34 -73 -1 -5 1 -6 6
-3 9 5 44 -61 42 -78 -1 -5 2 -12 7 -15 19 -13 43 -62 37 -74 -4 -7 -3 -8 1
-4 11 9 76 -103 68 -116 -3 -6 -2 -7 4 -4 10 6 38 -40 35 -55 -1 -5 2 -8 8 -8
11 0 41 -55 35 -64 -3 -3 -2 -4 2 -1 10 8 43 -47 36 -59 -3 -6 -3 -8 2 -4 10
10 58 -59 50 -71 -3 -6 0 -13 6 -17 8 -5 10 -2 5 7 -4 8 -1 5 8 -5 8 -10 13
-24 9 -30 -3 -6 -3 -8 2 -4 9 8 85 -93 78 -104 -2 -5 1 -8 7 -8 6 0 8 -5 4
-12 -4 -7 -3 -8 4 -4 13 8 35 -28 24 -39 -4 -3 -2 -5 5 -3 15 4 64 -62 56 -75
-3 -6 -1 -7 5 -3 13 8 35 -28 24 -39 -4 -3 -2 -5 4 -3 15 4 85 -83 77 -96 -3
-5 -1 -6 5 -2 12 7 59 -50 54 -66 -1 -5 2 -7 7 -3 12 7 57 -53 53 -69 -2 -6 0
-8 4 -3 10 10 75 -53 67 -66 -3 -6 -2 -7 4 -4 6 4 21 -5 33 -18 13 -14 20 -25
17 -25 -4 0 12 -18 34 -39 39 -36 41 -42 36 -77 -4 -20 -12 -41 -19 -46 -7 -4
-10 -8 -6 -8 10 0 -12 -60 -23 -60 -4 0 -6 -6 -3 -14 3 -7 -1 -20 -9 -27 -7
-8 -12 -19 -10 -25 2 -7 -2 -18 -9 -25 -7 -8 -13 -18 -13 -24 0 -20 -27 -85
-35 -85 -4 0 -8 -6 -7 -12 1 -35 -4 -49 -15 -42 -6 4 -8 3 -5 -3 7 -10 -10
-73 -22 -83 -3 -3 -6 -11 -7 -17 -3 -40 -5 -44 -16 -37 -7 4 -8 3 -4 -5 7 -10
-12 -79 -24 -91 -3 -3 -5 -9 -5 -15 0 -23 -28 -105 -36 -105 -5 0 -6 -7 -3
-15 4 -8 2 -15 -4 -15 -5 0 -9 -6 -9 -12 2 -26 -16 -88 -25 -88 -5 0 -7 -4 -4
-9 4 -5 1 -22 -5 -38 -7 -15 -13 -32 -14 -38 -6 -45 -19 -85 -27 -85 -5 0 -6
-4 -3 -10 3 -5 3 -16 -2 -22 -4 -7 -8 -17 -8 -23 -2 -37 -50 -203 -58 -198 -6
3 -7 1 -4 -5 8 -12 -13 -112 -24 -112 -4 0 -5 -9 -2 -20 3 -11 1 -20 -3 -20
-5 0 -10 -17 -11 -37 -1 -20 -5 -39 -10 -42 -4 -3 -9 -24 -10 -45 -2 -22 -6
-42 -10 -45 -5 -3 -9 -24 -10 -46 -2 -22 -6 -47 -9 -55 -4 -8 -9 -31 -11 -50
-2 -19 -7 -37 -11 -40 -4 -3 -7 -16 -7 -30 1 -14 -3 -43 -7 -65 -5 -22 -11
-60 -14 -85 -3 -25 -10 -50 -15 -56 -5 -6 -6 -13 -3 -16 3 -3 0 -30 -5 -59 -6
-30 -13 -72 -16 -94 -3 -22 -7 -53 -9 -70 -2 -16 -7 -59 -10 -95 -3 -35 -9
-74 -13 -85 -4 -11 -7 -38 -8 -60 -2 -39 -8 -110 -20 -245 -25 -286 -36 -835
-19 -1010 4 -41 9 -113 11 -160 6 -151 10 -206 16 -226 4 -10 9 -53 13 -94 3
-41 8 -91 11 -110 2 -19 5 -51 6 -70 1 -19 5 -37 8 -40 6 -4 14 -57 24 -150 1
-14 5 -32 8 -40 3 -8 6 -22 6 -30 4 -57 7 -76 13 -80 4 -3 8 -26 10 -50 2 -25
6 -47 10 -50 3 -3 8 -28 10 -55 2 -28 7 -53 11 -56 4 -3 9 -21 11 -40 2 -19 7
-42 11 -51 4 -9 4 -21 1 -27 -3 -5 -2 -11 4 -13 6 -2 11 -22 13 -45 1 -24 6
-43 11 -43 4 0 6 -11 4 -25 -3 -14 -1 -25 5 -25 5 0 7 -9 4 -20 -3 -11 -2 -20
3 -20 8 0 36 -116 33 -140 -1 -8 3 -17 8 -20 5 -3 10 -19 13 -36 2 -16 6 -36
9 -44 15 -41 41 -127 42 -140 0 -9 4 -21 9 -28 4 -6 4 -16 1 -22 -3 -5 -2 -10
3 -10 9 0 39 -88 34 -102 -1 -5 2 -8 6 -8 7 0 30 -58 37 -90 4 -19 28 -50 40
-50 8 0 18 -7 23 -15 6 -12 15 -6 42 29 18 25 38 42 43 39 6 -3 7 -1 3 5 -4 7
4 23 17 36 14 14 23 27 20 29 -2 3 11 19 29 38 18 18 27 29 20 25 -7 -4 1 15
18 43 18 28 38 51 46 51 8 0 11 -6 7 -17 -4 -11 -3 -14 5 -9 11 7 14 3 16 -26
1 -7 7 -19 14 -27 7 -7 11 -20 8 -28 -3 -8 -2 -12 3 -9 8 5 24 -32 25 -59 1
-5 7 -16 14 -24 7 -7 10 -21 7 -29 -3 -9 -3 -13 1 -9 10 10 36 -52 27 -66 -3
-6 -1 -7 5 -3 11 7 16 -7 15 -41 -1 -7 3 -11 7 -8 11 7 22 -24 13 -37 -3 -6
-1 -8 4 -5 13 8 26 -20 16 -35 -3 -6 -1 -8 4 -5 10 6 29 -37 25 -56 -1 -4 2
-7 7 -7 10 0 27 -39 23 -53 -1 -4 2 -7 6 -7 14 0 54 -79 46 -92 -4 -6 -3 -8 3
-5 9 6 37 -43 34 -58 -1 -3 5 -13 14 -21 8 -9 13 -19 10 -24 -3 -4 2 -11 11
-14 9 -4 14 -13 10 -22 -3 -8 -2 -13 3 -10 11 7 23 -22 14 -36 -3 -6 -1 -8 4
-5 10 6 40 -50 35 -65 -1 -5 2 -8 8 -8 12 0 51 -75 43 -84 -4 -3 -1 -6 5 -6
14 0 73 -110 65 -123 -3 -5 -1 -7 5 -3 8 5 29 -31 23 -41 0 -2 8 -12 19 -23
12 -12 18 -25 15 -30 -4 -6 -2 -10 4 -10 13 0 42 -55 34 -64 -4 -3 -2 -6 4 -6
12 0 66 -87 66 -107 0 -7 4 -10 8 -7 8 4 25 -35 21 -49 -1 -5 1 -6 6 -3 12 7
54 -69 44 -80 -4 -5 -3 -6 2 -2 12 10 39 -29 30 -44 -4 -6 -3 -8 3 -5 11 7 46
-39 46 -60 0 -7 4 -10 8 -8 8 6 23 -25 20 -40 -2 -5 0 -7 4 -3 11 11 58 -50
49 -63 -4 -7 -3 -9 3 -6 12 7 46 -26 38 -36 -3 -4 -2 -5 1 -2 9 6 44 -40 44
-59 0 -9 18 -36 40 -60 22 -23 36 -47 32 -51 -4 -5 -2 -5 4 -2 7 4 17 0 24 -8
7 -8 10 -15 7 -15 -2 0 10 -16 29 -37 18 -20 30 -41 27 -46 -3 -6 -1 -7 4 -4
11 7 28 -20 24 -38 -2 -5 1 -7 4 -3 7 6 48 -36 45 -44 -1 -2 19 -25 44 -52 25
-28 44 -51 42 -53 -2 -2 12 -19 31 -39 18 -20 30 -40 27 -46 -4 -6 -2 -8 4 -4
13 8 55 -48 44 -59 -4 -5 -2 -5 4 -2 6 4 19 -2 29 -13 10 -11 15 -20 11 -20
-4 0 6 -12 23 -26 17 -14 28 -31 24 -36 -3 -6 -1 -8 4 -5 11 7 90 -82 85 -96
-1 -5 2 -6 6 -3 12 7 133 -129 124 -139 -4 -5 -2 -5 4 -2 14 8 67 -46 57 -58
-5 -4 -3 -5 3 -2 14 8 47 -26 37 -38 -5 -4 -3 -5 3 -2 14 8 37 -17 26 -28 -4
-5 -2 -5 4 -2 14 8 37 -17 26 -28 -4 -5 -2 -5 4 -2 14 8 47 -26 37 -38 -5 -4
-3 -5 3 -2 14 8 47 -26 37 -38 -5 -4 -3 -5 3 -2 14 8 57 -36 47 -49 -5 -5 -4
-6 1 -2 10 9 122 -92 118 -105 -1 -5 2 -6 7 -3 5 3 27 -13 48 -37 22 -23 49
-47 59 -54 10 -6 18 -16 16 -23 -1 -6 2 -9 7 -6 5 3 21 -8 35 -25 14 -17 26
-27 26 -23 0 4 9 -1 20 -11 11 -10 17 -23 13 -29 -3 -6 -3 -8 2 -4 11 11 67
-31 59 -44 -4 -6 -2 -8 4 -4 6 3 15 -2 21 -11 6 -10 11 -14 11 -9 0 5 7 3 15
-4 8 -7 12 -16 9 -21 -3 -5 -1 -8 4 -7 12 4 103 -67 97 -76 -3 -3 -2 -4 1 -1
11 8 74 -47 67 -59 -3 -6 -3 -8 2 -4 11 10 47 -11 40 -23 -4 -5 -3 -8 2 -7 14
4 54 -23 48 -33 -4 -5 -3 -9 2 -8 16 4 43 -13 36 -24 -3 -5 -2 -8 3 -4 12 7
126 -78 116 -87 -4 -4 -2 -6 3 -4 15 5 126 -77 118 -87 -5 -4 -3 -6 2 -2 6 3
22 -4 35 -15 14 -11 19 -16 11 -12 -9 4 -12 3 -7 -4 4 -6 13 -9 20 -6 8 3 20
-4 28 -15 8 -12 17 -19 19 -16 3 2 19 -8 35 -23 16 -15 32 -28 34 -29 3 -1 13
-5 22 -8 10 -4 15 -12 11 -18 -3 -5 -2 -7 4 -4 11 7 109 -61 106 -73 -2 -5 5
-6 14 -3 12 5 14 3 8 -8 -4 -8 -5 -11 0 -7 11 11 47 -11 39 -24 -4 -7 -3 -8 4
-4 12 7 152 -81 152 -96 0 -5 4 -7 9 -4 5 3 20 -5 35 -19 15 -13 29 -25 31
-25 3 0 10 0 16 0 5 0 7 -5 3 -12 -4 -7 -3 -8 4 -4 6 4 20 -2 32 -14 11 -11
21 -20 23 -19 11 3 35 -15 30 -24 -3 -6 -1 -7 5 -3 13 8 55 -17 47 -27 -3 -4
-2 -5 1 -2 12 8 65 -26 58 -37 -4 -6 -3 -8 4 -5 15 10 43 -3 35 -16 -3 -6 -1
-7 5 -3 6 4 20 -2 32 -14 11 -11 23 -20 28 -20 14 1 82 -41 82 -51 0 -6 4 -8
8 -5 12 7 103 -49 95 -59 -5 -4 -3 -5 4 -1 15 8 126 -58 115 -69 -4 -5 -2 -5
5 -2 14 9 96 -37 86 -48 -5 -4 -3 -5 4 -2 16 10 44 -3 36 -16 -3 -5 -1 -7 5
-3 6 3 18 -1 26 -10 9 -8 16 -12 16 -9 0 8 92 -44 101 -57 3 -6 10 -9 15 -8
18 3 103 -43 97 -53 -3 -6 -1 -7 5 -3 6 3 16 0 24 -7 7 -7 16 -13 19 -13 18 2
147 -69 142 -77 -3 -6 -1 -7 5 -3 13 8 63 -14 56 -25 -3 -5 3 -6 12 -2 12 4
15 3 10 -5 -4 -8 -2 -10 7 -6 8 3 21 -1 28 -8 8 -7 21 -14 29 -16 8 -2 17 -7
20 -10 3 -4 12 -8 20 -10 31 -6 150 -65 150 -74 0 -5 4 -7 8 -4 10 6 114 -41
123 -55 3 -6 9 -10 13 -10 23 3 36 0 31 -9 -3 -5 0 -7 8 -4 8 3 21 -2 30 -10
8 -8 17 -13 19 -10 3 2 24 -4 46 -14 23 -10 39 -22 35 -26 -4 -4 0 -4 9 -1 8
3 22 0 29 -8 8 -7 20 -12 28 -9 9 3 11 0 6 -8 -5 -8 -4 -11 2 -7 13 8 93 -23
93 -35 0 -5 4 -7 9 -4 14 9 42 -5 34 -17 -3 -5 -1 -7 4 -4 15 9 75 -17 66 -28
-5 -4 -3 -5 4 -2 6 4 24 2 40 -4 29 -12 133 -18 133 -8 0 9 72 29 83 22 6 -3
7 -1 4 4 -4 6 6 16 23 22 17 5 30 8 30 5 0 -3 7 2 16 11 9 9 21 14 28 12 6 -2
17 3 25 10 7 8 18 12 25 10 6 -2 17 3 25 10 7 8 20 12 28 9 8 -3 11 -1 8 4 -3
6 0 10 7 10 7 0 26 7 42 15 16 9 31 13 34 11 2 -3 11 2 19 10 9 8 22 13 30 10
8 -3 12 -2 9 2 -5 8 62 38 77 34 4 -1 7 3 7 9 0 6 7 8 17 5 10 -4 14 -4 10 0
-10 10 52 36 66 27 5 -3 7 -1 4 4 -8 13 20 26 35 16 6 -3 8 -1 5 4 -6 9 30 25
49 22 4 0 10 4 13 9 11 17 71 43 83 36 6 -4 8 -3 5 3 -8 13 20 26 35 16 6 -3
8 -2 5 3 -6 10 120 71 136 66 4 -1 7 3 7 10 0 6 3 9 6 6 3 -4 15 3 26 14 11
11 26 17 34 14 8 -3 13 -2 10 2 -7 12 63 44 76 36 7 -5 8 -2 3 6 -6 10 -4 12
9 7 9 -4 15 -3 12 2 -7 11 43 33 56 25 6 -4 8 -2 5 3 -7 11 51 40 68 35 5 -2
7 0 2 4 -10 10 113 75 127 67 6 -3 8 -2 3 2 -6 7 82 63 108 68 5 1 18 10 29
20 11 10 27 15 35 12 9 -3 12 -3 8 1 -8 9 64 54 75 48 5 -3 8 -1 8 4 0 11 75
53 84 47 3 -3 4 -2 1 2 -8 10 55 44 67 37 6 -4 8 -3 5 3 -3 5 7 17 24 27 16 9
29 14 29 9 0 -4 4 -3 8 2 16 23 73 56 84 49 7 -4 10 -4 6 1 -8 8 48 51 72 57
7 2 24 13 38 26 14 12 32 20 39 17 8 -2 11 -1 8 5 -5 8 47 42 56 37 2 -1 3 0
1 2 -5 9 82 60 92 54 6 -3 8 -2 3 2 -8 10 103 86 115 79 4 -3 8 -1 8 5 0 15
72 61 83 54 6 -3 7 -2 4 4 -5 8 42 44 58 44 2 0 16 11 30 25 14 14 30 22 37
18 6 -4 8 -3 5 3 -5 8 16 25 30 24 1 0 16 13 34 29 17 17 36 27 42 23 5 -3 7
-2 4 4 -7 10 52 49 68 44 5 -1 7 1 3 4 -6 6 72 72 79 67 1 0 16 12 34 28 17
17 36 27 42 23 6 -3 7 -1 3 5 -7 11 6 17 27 13 5 -1 6 3 3 8 -6 9 39 44 50 39
3 -2 10 5 15 15 6 9 15 15 20 11 5 -3 8 -1 7 4 -4 14 84 82 96 75 5 -3 6 -1 3
4 -7 12 42 49 58 44 5 -1 7 1 3 5 -9 8 32 40 45 36 5 -1 6 2 2 8 -3 5 0 13 9
16 8 3 33 23 56 45 23 22 46 36 52 33 7 -4 8 -2 4 4 -7 12 50 59 66 54 5 -1 7
2 4 7 -6 10 84 88 97 83 5 -1 6 2 3 7 -6 10 84 88 96 84 5 -2 7 3 5 10 -1 6 4
11 11 9 8 -1 11 1 8 6 -7 12 58 74 69 65 4 -5 5 -3 2 3 -8 14 17 37 27 26 4
-4 6 -2 4 4 -4 14 117 125 127 116 5 -4 5 -2 2 4 -8 14 26 47 38 37 4 -5 5 -3
1 4 -3 6 -1 15 6 20 7 4 31 28 53 53 22 25 43 44 47 43 5 -2 7 3 5 10 -1 6 4
11 11 9 8 -1 11 1 8 6 -7 12 48 64 58 55 4 -5 6 -3 4 2 -5 15 83 116 95 108 6
-3 7 -1 4 5 -4 5 5 21 20 34 16 12 36 36 46 51 11 16 23 25 30 21 7 -4 9 -4 5
1 -10 11 42 76 55 68 5 -3 7 -1 3 5 -3 6 2 17 12 24 11 7 20 18 22 23 5 21 78
104 85 97 3 -4 5 -2 3 3 -4 14 27 56 36 47 4 -4 6 -2 4 3 -5 15 28 56 38 47 5
-4 6 -3 2 2 -8 9 69 116 84 116 5 0 7 4 4 9 -3 5 12 25 34 45 22 20 37 36 33
36 -3 0 2 9 12 20 10 11 23 17 29 13 6 -3 8 -3 4 2 -4 4 -3 14 2 21 6 6 13 22
15 33 5 28 40 72 50 63 3 -4 5 -2 3 3 -4 14 63 96 73 89 5 -3 6 1 3 9 -3 9 4
22 18 31 12 9 19 16 15 16 -4 0 0 11 9 25 9 14 21 22 27 18 6 -4 7 -1 2 7 -5
8 -2 18 9 26 10 7 17 15 16 18 -2 17 32 66 42 60 6 -4 8 -3 4 4 -9 14 28 74
40 64 5 -4 6 -3 2 2 -9 11 19 66 33 66 6 0 8 3 5 8 -6 10 39 84 46 76 3 -3 5
3 5 13 -1 10 3 17 10 16 7 -2 10 3 7 11 -3 8 5 25 17 37 13 13 24 30 24 39 2
25 61 121 70 112 4 -4 5 -1 0 7 -5 9 -2 19 9 27 10 7 17 16 17 21 -1 19 11 43
20 38 5 -3 6 1 3 9 -4 9 1 18 10 22 9 3 14 10 11 14 -3 5 2 15 10 24 9 8 15
18 14 21 -3 14 24 64 32 59 5 -3 8 -2 7 3 -4 14 13 53 23 53 5 0 8 3 7 8 -4
16 14 52 24 46 6 -4 8 -2 4 4 -9 15 15 63 28 55 6 -3 8 -3 4 2 -8 8 28 86 46
97 6 4 8 8 4 8 -4 0 10 35 31 77 21 43 44 93 51 111 7 17 17 32 22 32 5 0 7 4
3 9 -6 10 14 61 24 61 4 0 7 10 8 22 1 11 6 24 10 27 4 3 9 13 11 21 7 36 35
99 42 95 4 -3 8 1 7 8 -1 32 4 48 13 42 6 -3 7 1 4 9 -4 11 0 16 14 16 21 0
38 -16 44 -39 2 -7 13 -25 26 -39 13 -15 20 -32 17 -41 -3 -8 -3 -12 1 -8 10
9 55 -54 47 -66 -3 -6 -1 -7 4 -4 11 7 49 -42 45 -56 -1 -5 2 -6 7 -3 5 3 11
-1 14 -8 3 -8 15 -20 26 -26 17 -9 20 -8 14 6 -5 14 -2 16 14 12 17 -5 23 2
33 33 7 21 18 36 23 32 6 -3 7 -1 4 4 -8 12 12 75 25 84 6 3 9 9 8 13 -3 12
12 66 18 66 4 0 8 12 9 27 0 15 6 29 12 31 6 2 9 8 6 13 -6 9 14 90 25 99 3 3
5 11 6 18 1 6 2 21 3 33 0 11 5 18 10 15 4 -3 6 6 3 19 -2 15 0 25 7 25 7 0 9
5 6 10 -4 6 -1 27 6 48 7 20 12 42 11 49 -1 6 2 14 7 18 6 3 7 13 4 22 -4 9
-2 14 3 11 5 -3 10 12 11 34 0 23 5 43 10 47 4 3 9 22 11 41 1 19 5 42 8 50 4
8 8 30 10 48 2 18 6 38 10 44 4 6 8 26 10 45 2 18 6 39 10 45 8 13 14 48 14
86 0 12 5 22 10 22 5 0 7 6 4 13 -3 8 0 34 6 58 6 24 13 67 16 94 3 28 9 51
13 53 4 1 5 16 3 32 -2 17 0 30 6 30 6 0 8 9 5 20 -3 11 -2 28 2 37 4 10 9 41
11 68 3 28 7 59 11 70 3 11 7 34 8 50 2 17 5 54 9 83 15 131 24 246 29 377 3
50 7 155 11 235 10 220 1 603 -19 835 -3 33 -8 87 -11 120 -3 33 -8 87 -11
120 -3 33 -6 78 -7 100 -1 22 -4 42 -8 45 -4 3 -9 37 -12 75 -2 39 -7 78 -11
88 -4 9 -5 26 -2 37 3 11 2 22 -3 25 -6 4 -23 106 -25 155 0 8 -4 20 -7 26 -4
5 -9 32 -12 60 -3 27 -10 71 -16 99 -6 27 -8 55 -6 62 3 6 0 13 -5 15 -6 2
-11 23 -12 46 -1 23 -6 42 -11 42 -4 0 -6 11 -4 25 3 14 1 25 -5 25 -5 0 -7 9
-4 20 3 10 1 20 -3 22 -5 2 -10 21 -12 43 -2 22 -6 42 -10 46 -4 3 -9 18 -12
35 -2 16 -6 36 -10 45 -4 9 -8 27 -10 40 -2 13 -6 31 -9 39 -17 48 -37 141
-32 149 3 5 0 11 -6 13 -7 2 -12 18 -13 36 0 18 -4 32 -8 32 -5 0 -31 85 -34
115 0 6 -6 23 -13 40 -7 16 -13 42 -14 57 -1 15 -5 28 -9 28 -6 0 -20 45 -24
75 0 6 -6 23 -13 38 -6 16 -9 33 -5 38 3 5 1 9 -4 9 -11 0 -33 70 -26 82 3 4
1 8 -4 8 -11 0 -33 70 -26 82 3 4 0 8 -7 8 -6 0 -9 8 -6 20 3 11 1 18 -3 15
-7 -5 -24 42 -25 70 0 6 -3 12 -7 15 -10 8 -58 140 -50 140 4 0 1 4 -5 8 -7 4
-14 19 -15 32 -2 14 -9 31 -16 39 -7 7 -10 21 -7 29 3 9 3 13 -1 9 -11 -10
-46 81 -38 95 4 6 3 8 -3 5 -6 -4 -15 11 -22 32 -14 48 -14 54 1 45 7 -4 8 -3
4 5 -10 15 13 43 27 34 5 -3 7 -2 4 4 -8 13 37 56 48 46 4 -5 5 -3 2 3 -6 10
27 49 42 49 3 0 5 3 4 7 -2 4 11 18 28 32 17 14 27 26 24 26 -4 0 -2 7 5 15 7
8 16 12 21 9 5 -3 8 -2 7 3 -5 14 45 72 56 66 6 -3 8 -3 4 2 -8 8 39 70 53 70
5 0 9 5 10 10 2 22 21 45 31 39 6 -4 8 -3 5 3 -8 13 47 85 57 75 4 -4 6 -2 5
3 -5 16 34 75 44 68 6 -3 7 -1 4 4 -4 6 5 23 18 37 14 15 25 29 25 32 0 10 98
143 102 139 3 -3 5 1 5 8 0 17 33 67 44 67 5 0 8 3 7 8 -3 16 15 41 26 35 6
-3 8 -3 4 2 -11 12 33 85 46 78 6 -3 8 -3 4 2 -9 9 19 65 32 65 6 0 9 3 8 8
-4 15 14 52 23 46 5 -3 8 -2 7 3 -4 17 14 53 24 47 7 -5 8 -2 3 6 -5 8 -2 17
7 24 8 6 15 13 14 16 -3 14 38 89 45 84 5 -3 6 2 3 10 -4 9 1 18 10 22 9 3 14
10 11 14 -3 5 1 14 8 22 7 7 14 18 15 23 4 28 36 84 45 78 6 -3 7 -1 3 5 -7
12 13 62 26 62 5 0 7 4 3 9 -8 14 16 61 28 54 6 -3 7 -1 3 5 -7 12 13 62 26
62 5 0 7 4 4 9 -8 13 4 42 15 35 5 -3 6 2 3 10 -3 9 -1 16 6 16 6 0 9 4 6 9
-7 10 32 104 45 109 4 2 6 9 3 16 -3 8 2 20 10 29 8 8 13 17 10 19 -6 7 17 68
26 68 4 0 8 6 7 13 -1 31 4 48 12 43 5 -4 7 3 4 14 -3 12 0 20 6 20 7 0 10 4
7 8 -6 11 15 83 23 78 3 -2 7 10 7 27 1 17 6 33 13 35 6 2 9 7 6 11 -7 12 26
121 37 121 5 0 7 4 3 9 -8 13 17 101 27 95 4 -3 5 1 2 9 -2 7 1 27 7 43 7 16
13 34 13 39 3 22 19 81 24 90 7 11 8 18 10 58 1 16 6 26 11 23 5 -4 7 2 5 12
-3 9 0 38 6 62 11 46 15 204 6 275 -3 22 -12 68 -21 103 -8 35 -13 68 -9 73 3
5 0 9 -6 9 -7 0 -10 7 -7 15 4 8 2 17 -4 21 -6 3 -8 12 -5 20 3 8 0 14 -5 14
-6 0 -9 9 -6 20 3 11 2 18 -2 15 -10 -5 -32 65 -25 77 3 4 1 8 -4 8 -12 0 -33
70 -25 84 3 6 2 7 -3 3 -10 -10 -46 91 -37 106 3 5 1 7 -4 4 -10 -6 -26 29
-27 58 -1 6 -7 16 -14 24 -7 7 -11 18 -9 25 2 6 -3 17 -10 25 -8 7 -12 20 -9
27 3 8 2 14 -2 14 -12 0 -43 70 -37 81 4 5 2 9 -4 9 -10 0 -27 38 -23 53 1 4
-2 7 -7 7 -9 0 -21 25 -21 43 0 4 -9 17 -20 29 -11 12 -18 28 -15 36 2 7 1 10
-4 7 -9 -5 -21 18 -21 38 0 4 -9 17 -20 29 -19 20 -24 33 -21 51 0 4 -3 7 -9
7 -13 0 -41 56 -32 65 4 5 1 5 -5 1 -11 -6 -19 6 -11 17 1 1 -11 15 -26 31
-16 18 -24 36 -21 45 3 8 3 12 -1 8 -10 -9 -86 102 -78 115 4 6 2 8 -3 5 -6
-4 -18 4 -27 18 -9 14 -15 25 -12 25 2 0 -9 14 -25 31 -16 17 -26 36 -22 43 3
6 3 8 -2 4 -10 -10 -75 73 -68 87 4 5 3 7 -2 3 -10 -9 -41 32 -37 47 2 5 0 7
-4 3 -8 -9 -40 32 -36 45 1 5 -2 6 -7 2 -10 -6 -37 34 -33 48 1 5 -1 6 -6 3
-5 -3 -15 6 -22 19 -17 32 -41 39 -120 36 -36 -2 -86 -4 -113 -5 -26 0 -47 -5
-47 -9 0 -5 -12 -8 -27 -6 -16 1 -35 -1 -43 -4 -8 -3 -22 -5 -30 -5 -8 0 -41
-5 -73 -12 -31 -6 -61 -8 -66 -5 -5 3 -12 1 -16 -4 -3 -5 -13 -10 -23 -10 -9
0 -37 -5 -61 -11 -24 -6 -50 -9 -58 -6 -7 3 -13 0 -13 -5 0 -7 -11 -9 -25 -7
-13 3 -26 1 -27 -3 -2 -5 -21 -11 -43 -12 -22 -2 -47 -7 -55 -10 -21 -8 -109
-27 -147 -32 -18 -2 -36 -6 -41 -9 -5 -3 -24 -8 -43 -10 -19 -3 -68 -14 -109
-25 -41 -11 -76 -18 -79 -16 -2 3 -10 0 -16 -5 -7 -6 -27 -12 -44 -13 -17 -1
-31 -5 -31 -8 0 -6 -45 -19 -85 -25 -5 0 -27 -8 -47 -17 -20 -9 -45 -14 -54
-10 -11 4 -15 2 -11 -4 8 -12 -69 -37 -85 -27 -6 4 -8 3 -5 -3 8 -13 -39 -27
-55 -17 -7 4 -8 3 -4 -4 7 -11 -7 -16 -41 -15 -7 1 -11 -3 -8 -7 5 -8 -46 -24
-61 -20 -4 1 -10 -2 -13 -7 -10 -14 -62 -34 -72 -28 -5 4 -9 1 -9 -5 0 -7 -7
-9 -17 -6 -10 4 -14 4 -10 0 9 -9 -72 -46 -84 -38 -5 3 -9 0 -9 -6 0 -6 -4 -8
-10 -5 -5 3 -10 2 -10 -3 0 -12 -49 -34 -61 -27 -5 4 -9 2 -9 -3 0 -10 -130
-69 -142 -64 -5 1 -8 -2 -8 -7 0 -10 -39 -27 -52 -23 -5 1 -8 -2 -8 -7 0 -9
-54 -35 -66 -31 -4 1 -10 -3 -13 -8 -3 -6 -13 -12 -21 -14 -8 -2 -23 -11 -34
-21 -11 -10 -27 -15 -35 -12 -9 3 -12 3 -8 -1 10 -10 -143 -95 -156 -87 -5 3
-7 1 -4 -4 7 -11 -50 -40 -66 -35 -5 1 -6 -1 -3 -6 3 -5 -8 -16 -25 -26 -16
-9 -29 -14 -29 -9 0 4 -5 0 -11 -10 -6 -9 -14 -15 -20 -12 -5 4 -9 2 -9 -3 0
-12 -50 -45 -67 -45 -7 0 -13 -4 -13 -8 0 -9 -51 -42 -67 -42 -7 0 -10 -4 -8
-8 6 -8 -44 -42 -62 -42 -7 0 -10 -3 -8 -7 8 -14 -55 -51 -75 -45 -11 4 -17
11 -14 17 4 7 2 8 -4 4 -11 -7 -60 19 -74 39 -4 5 -8 7 -8 2 0 -9 -102 42
-111 55 -3 5 -10 9 -15 9 -21 -1 -72 23 -67 32 3 6 1 7 -5 4 -14 -9 -43 3 -36
14 3 5 -2 6 -10 3 -10 -4 -16 -1 -16 7 0 7 -3 10 -6 6 -10 -9 -64 14 -57 26 3
5 1 7 -4 4 -15 -9 -75 17 -66 28 5 4 3 5 -4 2 -14 -9 -45 2 -38 13 3 5 -5 6
-17 2 -13 -3 -19 -1 -15 5 4 6 1 10 -6 9 -21 -2 -157 56 -151 65 3 5 -2 6 -10
3 -9 -3 -16 -1 -16 5 0 6 -6 8 -14 5 -7 -3 -20 1 -27 9 -8 7 -19 12 -25 10 -7
-2 -18 2 -25 10 -8 7 -19 12 -25 10 -7 -2 -18 2 -25 9 -8 7 -18 13 -24 13 -19
0 -135 47 -135 55 0 4 -12 8 -26 8 -15 0 -29 3 -33 8 -3 5 -15 11 -26 12 -11
2 -36 11 -55 20 -40 17 -35 16 -78 26 -18 4 -30 11 -28 14 2 4 -7 8 -21 9 -14
0 -28 5 -32 10 -3 4 -10 8 -16 8 -21 0 -134 38 -131 44 2 3 -9 7 -26 7 -17 1
-33 5 -37 10 -3 5 -19 10 -36 12 -16 2 -32 7 -35 10 -3 4 -16 8 -30 10 -14 1
-26 6 -28 11 -2 5 -12 7 -22 4 -12 -3 -20 0 -20 6 0 7 -4 10 -9 7 -7 -5 -26 0
-91 22 -22 8 -21 8 -68 16 -23 4 -40 11 -38 14 2 4 -10 8 -27 8 -17 1 -33 6
-35 13 -2 6 -8 9 -13 6 -9 -6 -90 14 -99 25 -3 3 -14 6 -25 8 -83 11 -135 24
-135 34 0 5 -5 6 -10 3 -6 -4 -26 -1 -46 5 -39 13 -121 23 -174 20 -76 -4 -88
-5 -84 -11 5 -9 -56 -20 -67 -13 -5 3 -9 0 -9 -7 0 -7 -10 -9 -25 -6 -14 2
-23 2 -20 -1 9 -9 -166 -63 -178 -55 -7 3 -9 3 -5 -2 9 -10 -70 -47 -83 -39
-5 3 -9 1 -9 -3 0 -14 -90 -54 -102 -47 -6 4 -8 3 -5 -3 5 -8 -53 -36 -69 -33
-4 1 -10 -2 -13 -7 -13 -19 -62 -43 -74 -37 -7 4 -9 4 -5 -1 11 -11 -50 -47
-65 -39 -7 4 -9 3 -4 -1 12 -13 -112 -87 -134 -80 -11 4 -16 11 -13 17 4 6 3
8 -2 5 -12 -7 -116 58 -107 67 4 4 -1 4 -11 0 -15 -6 -17 -4 -11 6 5 9 4 11
-3 6 -11 -6 -60 18 -73 37 -3 5 -9 8 -13 8 -20 -3 -26 0 -20 11 4 7 3 8 -4 4
-12 -7 -72 19 -83 36 -3 5 -9 9 -13 9 -20 -3 -26 0 -20 11 4 6 3 8 -3 5 -15
-9 -145 47 -136 58 5 4 3 5 -3 2 -13 -8 -85 13 -79 23 3 4 -1 8 -8 7 -39 -1
-58 4 -51 15 4 6 3 8 -4 4 -12 -7 -102 15 -102 25 0 4 -10 5 -22 1 -13 -3 -19
-1 -15 5 4 6 -3 8 -18 5 -14 -2 -25 0 -25 4 0 5 -12 10 -27 10 -79 4 -122 3
-163 -2 -25 -3 -55 -6 -67 -7 -13 -1 -23 -5 -23 -9 0 -9 -97 -31 -109 -24 -5
3 -11 2 -13 -4 -1 -5 -17 -11 -33 -13 -17 -2 -36 -6 -41 -10 -6 -3 -21 -8 -35
-11 -13 -2 -37 -9 -52 -15 -16 -6 -32 -9 -37 -6 -5 3 -10 1 -12 -5 -2 -6 -18
-11 -36 -13 -17 -1 -32 -6 -32 -11 0 -4 -11 -6 -25 -3 -14 2 -23 2 -20 -1 7
-8 -146 -52 -157 -46 -4 3 -8 1 -8 -4 0 -10 -94 -38 -117 -36 -7 1 -13 -2 -13
-6 0 -4 -17 -11 -37 -16 -46 -9 -39 -7 -87 -28 -21 -9 -45 -15 -53 -12 -8 3
-12 2 -9 -3 6 -9 -63 -33 -76 -25 -4 3 -8 1 -8 -4 0 -12 -59 -34 -71 -26 -5 3
-9 1 -9 -4 0 -9 -76 -37 -97 -35 -7 0 -13 -3 -13 -9 0 -5 -4 -7 -9 -4 -5 4
-11 1 -13 -5 -2 -6 -15 -12 -30 -12 -14 -1 -25 -5 -23 -8 4 -6 -106 -45 -117
-41 -5 1 -8 -3 -8 -9 0 -6 -7 -9 -15 -5 -8 3 -15 1 -15 -3 0 -12 -60 -32 -73
-24 -6 4 -7 1 -2 -7 6 -10 4 -12 -8 -7 -10 3 -17 3 -17 -2 0 -11 -50 -32 -61
-26 -5 4 -9 2 -9 -3 0 -13 -80 -43 -94 -35 -6 3 -8 3 -4 -2 9 -10 -70 -47 -83
-39 -5 3 -9 1 -9 -4 0 -13 -50 -33 -62 -26 -6 4 -8 3 -5 -3 6 -9 -59 -39 -75
-35 -5 1 -8 -2 -8 -7 0 -9 -70 -37 -79 -32 -2 2 -7 -2 -10 -7 -11 -17 -71 -43
-83 -36 -6 4 -8 3 -5 -3 8 -13 -41 -36 -55 -27 -6 4 -8 3 -5 -3 6 -10 -70 -50
-85 -45 -5 1 -8 -2 -8 -8 0 -20 -41 -33 -66 -20 -13 7 -21 17 -18 22 3 5 2 8
-3 7 -16 -4 -43 13 -36 24 3 5 2 7 -4 4 -5 -4 -19 3 -31 13 -12 11 -24 20 -27
20 -15 0 -74 48 -67 54 4 4 2 6 -3 5 -19 -5 -55 12 -49 23 4 6 3 8 -3 5 -11
-7 -65 27 -58 36 3 4 2 5 -1 2 -10 -7 -84 37 -78 46 3 5 -1 6 -8 4 -8 -3 -24
4 -36 15 -12 11 -24 20 -27 20 -3 0 -9 0 -13 0 -5 0 -18 9 -30 20 -12 11 -24
20 -27 20 -22 -1 -25 1 -19 12 4 6 3 8 -3 5 -14 -9 -95 37 -86 48 5 4 3 5 -4
2 -15 -9 -45 2 -37 14 3 5 -3 6 -12 2 -13 -5 -15 -3 -9 7 5 8 4 11 -3 6 -14
-9 -83 25 -75 37 3 6 1 7 -5 3 -14 -9 -83 25 -75 37 3 6 1 7 -5 3 -13 -8 -62
13 -62 27 0 6 -3 8 -6 4 -9 -9 -65 14 -58 24 3 5 -1 6 -9 3 -8 -3 -21 2 -30
10 -8 8 -17 13 -20 10 -5 -6 -99 37 -108 49 -3 5 -9 8 -13 8 -23 -3 -36 0 -31
9 3 6 -1 7 -9 4 -9 -3 -16 -1 -16 5 0 6 -6 8 -14 5 -7 -3 -20 1 -27 9 -8 7
-19 12 -25 10 -7 -2 -18 2 -25 9 -8 7 -25 14 -39 16 -13 1 -27 7 -31 13 -3 6
-8 9 -10 8 -7 -5 -99 23 -99 30 0 3 -12 7 -26 8 -15 0 -29 5 -33 10 -3 4 -17
9 -31 11 -14 1 -27 7 -28 12 -2 6 -7 8 -12 5 -5 -3 -21 0 -37 6 -15 7 -32 13
-38 14 -41 5 -84 18 -81 24 2 3 -12 7 -32 8 -20 1 -38 6 -40 11 -2 6 -11 8
-21 5 -10 -3 -22 0 -25 6 -4 5 -13 8 -20 5 -8 -3 -17 -1 -20 5 -4 6 -13 8 -21
4 -8 -3 -15 -1 -15 3 0 5 -21 10 -46 11 -25 1 -52 7 -58 13 -7 5 -16 7 -19 4
-3 -3 -11 -3 -18 2 -7 4 -30 9 -53 11 -23 2 -42 8 -44 13 -2 5 -10 6 -18 3 -8
-3 -22 -2 -31 2 -10 4 -34 10 -53 12 -19 2 -36 8 -38 12 -1 4 -14 6 -27 3 -14
-2 -25 0 -25 4 0 5 -12 10 -27 10 -52 3 -128 16 -133 22 -3 4 -15 7 -27 8 -74
2 -94 5 -89 13 3 4 -6 6 -19 3 -14 -2 -33 -1 -42 3 -10 4 -36 9 -58 11 -22 2
-60 5 -85 8 -76 8 -144 11 -167 8z"/>
<path d="M1604 6542 c-31 -4 -31 -64 0 -106 13 -17 32 -53 41 -81 16 -46 18
-142 19 -1265 0 -668 -2 -1241 -6 -1273 -7 -55 -47 -149 -68 -162 -6 -4 -10
-24 -8 -46 l2 -39 268 0 268 0 0 35 c0 21 -10 51 -26 74 -53 80 -53 89 -54
680 l0 548 127 -1 c135 -2 155 -8 206 -55 63 -58 61 -42 62 -551 2 -504 -1
-532 -51 -612 -18 -29 -30 -60 -29 -80 l1 -33 267 -3 267 -2 0 38 c0 24 -8 49
-20 65 -56 70 -55 60 -60 637 -5 526 -5 536 -28 591 -12 30 -37 80 -55 111
l-34 55 39 64 c72 119 73 126 73 564 0 357 -2 395 -19 448 -43 132 -153 264
-274 329 -119 65 -149 69 -539 71 -191 1 -357 1 -369 -1z m704 -201 c12 -7 22
-8 22 -4 0 4 9 -3 20 -15 12 -12 25 -22 29 -22 5 0 11 -9 14 -21 3 -12 10 -18
17 -14 6 3 10 3 9 -2 -1 -4 2 -17 7 -28 9 -20 13 -867 4 -895 -3 -8 -9 -20
-15 -26 -5 -6 -19 -23 -30 -37 -11 -15 -26 -27 -33 -27 -7 0 -15 -6 -18 -13
-6 -17 -3 -17 -164 -20 l-135 -3 0 571 0 570 126 -1 c73 -1 135 -6 147 -13z"/>
<path d="M17709 6534 c-122 -19 -201 -56 -307 -143 -82 -66 -169 -213 -189
-318 -13 -68 -4 -433 12 -498 43 -174 155 -311 318 -389 107 -51 160 -65 279
-71 96 -4 140 -19 180 -59 52 -53 56 -74 62 -326 19 -704 19 -631 -6 -675 -28
-47 -97 -91 -155 -99 -89 -11 -186 41 -219 119 -8 21 -15 108 -20 266 -6 205
-10 324 -13 380 -1 12 -15 18 -50 23 -72 10 -168 62 -234 128 -51 50 -64 58
-96 58 l-38 0 3 -67 c1 -38 5 -178 8 -313 11 -413 16 -483 32 -540 87 -299
378 -479 695 -431 228 35 408 175 485 377 34 89 35 120 8 914 -4 127 -10 179
-25 228 -55 167 -218 319 -406 377 -26 9 -93 18 -148 21 -108 6 -155 21 -198
62 -61 58 -63 68 -72 410 -5 205 -4 226 13 265 35 77 100 117 189 117 80 0
147 -41 184 -112 18 -36 25 -109 28 -299 l1 -57 38 -7 c46 -8 154 -62 232
-115 45 -30 69 -40 99 -40 l41 0 -6 178 c-5 152 -9 188 -31 252 -46 139 -145
250 -288 320 -134 67 -262 87 -406 64z"/>
<path d="M3140 5675 c0 -21 10 -51 24 -73 56 -86 61 -151 31 -402 -2 -19 -7
-66 -10 -105 -3 -38 -10 -106 -15 -150 -5 -44 -11 -108 -14 -142 -13 -145 -18
-189 -21 -213 -2 -14 -6 -61 -10 -105 -3 -44 -8 -96 -10 -115 -7 -58 -14 -141
-20 -215 -3 -38 -8 -81 -10 -95 -2 -14 -7 -59 -10 -100 -4 -41 -8 -86 -10
-100 -2 -14 -6 -59 -10 -100 -3 -41 -8 -91 -10 -110 -2 -19 -7 -66 -10 -105
-4 -38 -8 -81 -10 -95 -2 -14 -7 -61 -10 -105 -4 -44 -8 -91 -10 -105 -2 -14
-7 -59 -10 -100 -7 -89 -13 -144 -22 -185 -6 -31 -37 -100 -57 -124 -6 -8 -12
-31 -13 -53 l-1 -38 269 0 269 0 0 37 c0 23 -11 53 -29 82 -36 56 -55 126 -47
178 3 21 5 47 6 59 0 17 33 40 151 109 82 48 152 86 153 84 6 -7 17 -125 21
-231 5 -113 -8 -165 -54 -224 -10 -13 -19 -40 -19 -59 l0 -35 269 0 269 0 0
36 c0 22 -9 47 -24 67 -39 51 -47 79 -61 212 -3 33 -8 78 -10 100 -3 22 -7 72
-10 110 -4 39 -8 81 -10 95 -2 14 -7 61 -10 105 -4 44 -8 91 -10 105 -6 43
-14 123 -20 185 -3 33 -7 78 -10 100 -3 22 -7 67 -10 100 -3 33 -8 83 -10 110
-3 28 -7 75 -10 105 -3 30 -7 71 -10 90 -2 19 -7 71 -10 115 -3 44 -8 94 -10
110 -2 17 -7 62 -10 100 -4 39 -8 84 -10 100 -2 17 -7 66 -10 109 -4 43 -8 86
-10 95 -1 9 -6 56 -10 105 -4 49 -8 96 -10 105 -1 9 -6 57 -10 106 -4 50 -8
97 -10 105 -2 8 -6 55 -10 104 -4 49 -8 96 -10 105 -1 9 -6 55 -10 104 l-7 87
-339 0 -339 0 0 -35z m405 -1015 c3 -30 8 -77 10 -105 3 -27 7 -79 11 -115 3
-36 7 -78 9 -95 2 -16 6 -61 9 -100 4 -38 8 -88 11 -110 2 -22 7 -74 10 -115
3 -41 8 -86 10 -100 3 -20 16 -166 17 -190 1 -23 -3 -40 -9 -38 -9 3 -177 -93
-181 -104 -2 -4 -10 -4 -18 -1 -7 3 -12 9 -9 13 3 5 7 37 10 72 3 35 7 83 10
108 8 72 16 161 20 208 2 24 6 64 9 90 4 26 8 72 11 102 7 84 15 171 20 215 2
22 7 67 10 100 5 53 9 90 20 195 4 33 4 34 9 29 3 -2 7 -29 11 -59z"/>
<path d="M15980 5674 c0 -22 9 -47 24 -67 37 -49 58 -124 57 -200 -1 -38 -3
-72 -5 -75 -2 -4 -7 -42 -11 -85 -3 -43 -8 -88 -10 -100 -2 -12 -6 -52 -10
-89 -3 -37 -8 -77 -10 -90 -2 -13 -6 -54 -10 -93 -3 -38 -10 -106 -15 -150 -5
-44 -12 -107 -15 -140 -3 -33 -7 -76 -10 -95 -2 -19 -7 -64 -10 -100 -6 -70
-23 -232 -30 -290 -4 -32 -37 -355 -51 -490 -3 -30 -9 -89 -14 -130 -5 -41
-11 -102 -15 -135 -3 -33 -7 -76 -10 -95 -2 -19 -6 -60 -9 -90 -3 -30 -8 -86
-12 -125 -7 -80 -26 -135 -62 -184 -22 -29 -27 -52 -23 -98 1 -10 66 -13 289
-13 l289 0 -2 38 c-1 25 -11 51 -28 73 -49 65 -66 140 -51 231 6 37 10 40 166
123 88 47 162 84 164 83 2 -2 6 -33 9 -68 4 -36 10 -92 15 -125 4 -33 6 -82 4
-108 -4 -50 -41 -134 -68 -156 -10 -8 -16 -29 -16 -52 l0 -39 290 0 290 0 0
38 c0 26 -7 45 -19 56 -32 29 -58 97 -65 166 -4 36 -9 76 -11 90 -2 14 -7 54
-10 90 -7 77 -9 89 -35 335 -11 105 -22 206 -25 225 -2 19 -9 80 -15 135 -6
55 -13 118 -15 140 -3 22 -12 110 -20 195 -8 85 -17 173 -20 195 -2 22 -7 67
-10 100 -3 33 -8 76 -10 95 -2 19 -9 82 -15 140 -22 224 -28 282 -35 340 -2
19 -7 67 -10 105 -4 39 -8 84 -10 100 -2 17 -11 100 -20 185 -9 85 -18 169
-20 185 -2 17 -4 36 -4 43 -1 9 -81 12 -366 12 l-365 0 0 -36z m435 -994 c3
-25 8 -72 10 -105 3 -33 7 -69 9 -80 2 -11 7 -58 11 -105 3 -47 8 -96 10 -110
2 -14 7 -54 10 -90 4 -36 8 -81 10 -100 2 -19 6 -61 10 -93 3 -31 7 -72 9 -90
3 -17 7 -68 11 -112 4 -44 9 -82 11 -84 1 -2 -22 -16 -53 -32 -31 -16 -60 -35
-65 -42 -4 -6 -8 -8 -8 -4 0 4 -25 -6 -55 -23 l-55 -31 5 68 c3 37 7 81 10 96
2 15 7 60 10 100 10 101 12 115 20 178 3 30 8 73 10 95 2 21 6 66 10 99 3 33
8 78 10 100 2 22 6 60 9 85 6 45 9 75 21 205 6 60 12 108 14 124 3 15 11 -12
16 -49z"/>
<path d="M4230 4895 c0 -25 4 -45 8 -45 5 0 22 -26 38 -57 l29 -58 3 -1260 c3
-1377 6 -1306 -54 -1397 -14 -22 -24 -52 -24 -73 0 -33 2 -35 33 -35 401 -4
491 -1 499 13 12 22 6 46 -24 97 -54 91 -51 37 -52 1117 -1 556 2 1009 6 1007
4 -2 91 -144 194 -314 102 -171 189 -312 193 -314 3 -2 92 140 196 315 105
175 192 319 195 319 3 0 5 -447 4 -992 -1 -1067 0 -1056 -53 -1140 -15 -24
-28 -58 -29 -75 l-2 -33 55 0 c30 0 147 0 260 0 113 0 210 0 215 0 21 0 10 71
-16 105 -56 74 -54 22 -54 1386 0 1367 -2 1300 55 1375 16 21 25 46 25 68 l0
36 -282 -2 -283 -3 0 -35 c0 -20 7 -44 18 -57 19 -21 18 -23 -139 -287 -87
-146 -161 -266 -164 -266 -3 1 -76 119 -164 265 -154 256 -158 264 -142 286 9
13 16 40 16 61 l0 38 -280 0 -280 0 0 -45z"/>
<path d="M14180 4899 c0 -27 9 -52 31 -82 54 -76 57 -112 59 -619 1 -255 3
-647 5 -873 5 -642 6 -1108 1 -1132 -5 -25 -36 -91 -64 -140 -11 -18 -17 -44
-15 -60 4 -28 5 -28 71 -26 37 2 191 4 342 6 259 4 280 5 360 29 47 14 106 35
132 46 194 85 339 250 392 445 23 81 23 88 19 607 -2 303 -8 547 -14 576 -17
87 -100 184 -170 199 -43 10 -43 21 -1 38 54 22 118 89 141 150 18 47 20 76
20 326 -1 241 -3 281 -20 336 -23 74 -94 154 -166 188 -47 22 -55 22 -585 23
l-538 2 0 -39z m783 -137 c16 -7 30 -12 33 -12 16 0 75 -69 89 -103 25 -63 25
-388 0 -441 -22 -45 -78 -93 -125 -106 -41 -10 -265 -19 -278 -11 -5 3 -9 44
-10 91 0 47 -1 189 -1 315 -1 127 -2 242 -1 256 l0 25 133 -1 c75 -1 144 -7
160 -13z m18 -1056 c36 -8 96 -64 113 -106 7 -19 14 -71 14 -115 2 -254 1
-863 -1 -880 -6 -40 -60 -136 -97 -169 -46 -41 -116 -83 -150 -89 -14 -3 -36
-8 -50 -11 -44 -10 -120 -15 -121 -8 -1 7 -8 642 -12 1107 l-2 280 120 3 c65
2 121 5 123 7 2 2 12 0 21 -5 9 -5 28 -11 42 -14z"/>
<path d="M6030 4192 c0 -25 9 -50 25 -72 57 -78 55 -26 55 -1386 0 -1358 3
-1284 -55 -1372 -18 -28 -25 -50 -23 -74 l3 -33 265 0 265 0 3 32 c2 21 -5 44
-22 70 -59 89 -56 36 -56 1137 l0 1011 91 -150 c51 -83 100 -163 109 -180 36
-63 182 -300 189 -308 4 -4 88 126 186 290 98 164 186 306 195 316 16 17 17
-38 16 -990 -2 -1007 -2 -1008 -23 -1062 -12 -29 -29 -61 -37 -70 -20 -22 -27
-79 -12 -89 6 -3 127 -7 268 -7 l256 0 5 28 c2 15 -2 37 -9 50 -8 12 -26 47
-41 77 l-28 55 0 1270 c0 1195 1 1273 18 1321 10 29 27 60 37 69 14 13 20 31
20 62 l0 43 -280 0 -280 0 0 -42 c0 -25 7 -49 17 -60 15 -17 15 -21 -7 -61
-45 -80 -281 -472 -290 -481 -7 -7 -28 23 -87 120 -79 132 -219 364 -230 380
-11 17 -10 24 5 45 9 13 17 41 18 62 l0 37 -283 0 -283 0 0 -38z"/>
<path d="M13040 4214 c-177 -40 -335 -163 -410 -319 -63 -132 -60 -84 -58
-1150 1 -846 5 -1011 22 -1060 2 -5 4 -13 5 -18 3 -19 67 -136 94 -172 121
-158 296 -240 512 -238 258 3 492 164 573 396 23 68 24 80 24 331 -1 144 -1
601 -2 1016 l-1 755 -25 74 c-14 41 -41 98 -60 128 -75 112 -216 210 -359 248
-86 23 -236 28 -315 9z m201 -185 c25 -5 63 -24 83 -41 75 -61 69 26 73 -1138
3 -1158 6 -1099 -62 -1158 -99 -87 -270 -60 -327 52 -20 40 -21 53 -23 1076
-2 642 1 1050 7 1073 12 48 84 123 129 135 51 13 70 13 120 1z"/>
<path d="M7850 3536 c0 -26 7 -47 20 -61 11 -12 30 -48 41 -80 20 -57 20 -73
18 -1179 -1 -862 1 -1131 11 -1166 72 -264 274 -434 530 -445 256 -12 487 144
571 386 25 72 25 54 32 1629 4 711 4 726 25 779 12 30 30 63 41 75 14 15 19
33 18 59 -1 20 -4 37 -7 38 -3 0 -123 1 -268 2 -168 1 -262 -2 -263 -8 -4 -31
-3 -71 1 -75 23 -20 52 -76 63 -119 17 -67 13 -2205 -5 -2261 -22 -71 -91
-122 -167 -123 -89 -1 -164 45 -191 118 -14 37 -11 2172 3 2250 5 27 23 71 41
98 23 34 32 59 31 85 l-1 37 -272 0 -272 1 0 -40z"/>
<path d="M11501 3568 c-217 -38 -396 -186 -473 -391 l-23 -62 -2 -996 c-3
-1101 -6 -1046 62 -1184 71 -146 213 -264 368 -306 74 -20 81 -21 172 -23 113
-4 196 14 304 66 150 71 278 225 311 372 7 33 10 368 10 1043 -2 1059 -1 1040
-50 1147 -47 105 -154 212 -267 269 -112 57 -296 86 -412 65z m223 -211 c43
-29 86 -81 92 -114 10 -54 11 -2085 1 -2126 -12 -46 -81 -111 -135 -124 -107
-27 -224 27 -256 119 -8 26 -11 303 -11 1086 l0 1050 30 43 c17 24 46 52 65
63 62 36 160 38 214 3z"/>
<path d="M10328 2982 l-187 -2 -82 -113 c-174 -237 -219 -296 -229 -302 -16
-10 -4 193 14 243 9 24 26 56 39 72 14 16 23 38 21 51 -1 13 -3 30 -3 37 -1
10 -55 12 -268 10 l-268 -3 1 -37 c1 -20 12 -51 23 -67 12 -17 31 -56 41 -86
19 -54 20 -93 21 -768 0 -392 2 -955 2 -1252 l2 -540 -29 -62 c-16 -35 -33
-63 -38 -63 -5 0 -8 -21 -6 -46 l3 -45 259 1 c143 0 261 2 262 3 2 1 5 14 8
29 3 19 -4 40 -24 70 -59 91 -59 89 -60 791 -1 353 -2 739 -2 857 -1 198 1
219 20 255 59 115 175 151 281 87 31 -19 53 -43 69 -75 l25 -47 4 -856 c4
-934 5 -913 -53 -1005 -14 -22 -24 -54 -24 -74 l0 -36 268 3 267 3 2 34 c1 24
-7 45 -27 70 -55 68 -55 66 -58 1002 -2 475 -7 885 -12 910 -32 170 -137 321
-277 400 -24 13 -43 27 -43 32 0 4 53 73 117 155 64 81 154 194 199 252 46 57
82 106 80 108 -6 5 -142 7 -338 4z"/>
</g>
</svg>
